<svg width="30" height="30" viewBox="0 0 30 30" fill="none" xmlns="http://www.w3.org/2000/svg">
<g clip-path="url(#clip0_3_3)">
<path d="M25.5 1.5H4.5C2.8425 1.5 1.5 2.8425 1.5 4.5V25.5C1.5 27.1575 2.8425 28.5 4.5 28.5H25.5C27.1575 28.5 28.5 27.1575 28.5 25.5V4.5C28.5 2.8425 27.1575 1.5 25.5 1.5ZM6 6H13.5V13.5H6V6ZM12.75 25.5C10.68 25.5 9 23.82 9 21.75C9 19.68 10.68 18 12.75 18C14.82 18 16.5 19.68 16.5 21.75C16.5 23.82 14.82 25.5 12.75 25.5ZM17.25 16.5L21.75 9L26.25 16.5H17.25Z" fill="white"/>
</g>
<defs>
<clipPath id="clip0_3_3">
<rect width="30" height="30" fill="white"/>
</clipPath>
</defs>
</svg>
