<svg width="12" height="30" viewBox="0 0 12 30" fill="none" xmlns="http://www.w3.org/2000/svg">
<path d="M1.21126 14.577C1.27355 14.9423 1.55368 15.2316 1.9162 15.3049L2.3648 15.3937L3.94044 21.9086H5.41167H5.72661H7.19784L8.77437 15.3937L9.22208 15.3049C9.58466 15.2316 9.86567 14.9423 9.92702 14.577L10.805 9.39329C10.9085 8.78356 10.5807 8.1811 10.0112 7.93758L7.77364 6.97905C7.27741 7.53844 6.5331 8.03831 5.56905 8.03831C4.60589 8.03831 3.86069 7.53844 3.36446 6.97905L1.12689 7.93758C0.559229 8.1811 0.230577 8.78356 0.334054 9.39329L1.21126 14.577Z" fill="white"/>
<path d="M5.56917 7.0926C6.95526 7.0926 7.77013 5.7065 7.85251 5.2991C7.93307 4.89076 8.25903 3.02309 8.25903 2.44541C8.25897 0.733359 6.71081 0 5.56917 0C4.42841 0 2.87936 0.733359 2.87936 2.44535C2.87936 3.02303 3.20532 4.8907 3.28677 5.29904C3.36827 5.7065 4.18308 7.0926 5.56917 7.0926Z" fill="white"/>
<path d="M9.50958 22.8543H1.62872V27.2681H9.50958V22.8543Z" fill="white"/>
<path d="M11.1383 28.1085H0V30H11.1383V28.1085Z" fill="white"/>
</svg>
