<svg width="30" height="30" viewBox="0 0 30 30" fill="none" xmlns="http://www.w3.org/2000/svg">
<path d="M10.6421 14.577C10.7044 14.9423 10.9845 15.2316 11.347 15.3049L11.7956 15.3937L13.3713 21.9086H14.8425H15.1575H16.6287L18.2052 15.3937L18.6529 15.3049C19.0155 15.2316 19.2965 14.9423 19.3579 14.577L20.2358 9.39329C20.3393 8.78356 20.0115 8.1811 19.4421 7.93758L17.2045 6.97905C16.7083 7.53844 15.9639 8.03831 14.9999 8.03831C14.0367 8.03831 13.2915 7.53844 12.7953 6.97905L10.5577 7.93758C9.99008 8.1811 9.66142 8.78356 9.7649 9.39329L10.6421 14.577Z" fill="white"/>
<path d="M15 7.0926C16.3861 7.0926 17.201 5.7065 17.2834 5.2991C17.3639 4.89076 17.6899 3.02309 17.6899 2.44541C17.6898 0.733359 16.1417 0 15 0C13.8593 0 12.3102 0.733359 12.3102 2.44535C12.3102 3.02303 12.6362 4.8907 12.7176 5.29904C12.7991 5.7065 13.6139 7.0926 15 7.0926Z" fill="white"/>
<path d="M18.9404 22.8543H11.0596V27.2681H18.9404V22.8543Z" fill="white"/>
<path d="M20.5692 28.1085H9.43085V30H20.5692V28.1085Z" fill="white"/>
</svg>
